<svg width="1714" height="844" viewBox="0 0 1714 844" fill="none" xmlns="http://www.w3.org/2000/svg">
<mask id="path-1-inside-1_590_222972" fill="white">
<path d="M1713.89 857.625C1713.89 745.119 1691.73 633.714 1648.68 529.772C1605.62 425.829 1542.52 331.385 1462.97 251.831C1383.41 172.277 1288.97 109.171 1185.02 66.1165C1081.08 23.0621 969.677 0.902339 857.17 0.902344C744.664 0.902349 633.259 23.0622 529.317 66.1165C425.374 109.171 330.93 172.277 251.376 251.831C171.822 331.385 108.716 425.829 65.6614 529.772C22.607 633.714 0.447256 745.119 0.447266 857.626L857.17 857.625H1713.89Z"/>
</mask>
<path d="M1713.89 857.625C1713.89 745.119 1691.73 633.714 1648.68 529.772C1605.62 425.829 1542.52 331.385 1462.97 251.831C1383.41 172.277 1288.97 109.171 1185.02 66.1165C1081.08 23.0621 969.677 0.902339 857.17 0.902344C744.664 0.902349 633.259 23.0622 529.317 66.1165C425.374 109.171 330.93 172.277 251.376 251.831C171.822 331.385 108.716 425.829 65.6614 529.772C22.607 633.714 0.447256 745.119 0.447266 857.626L857.17 857.625H1713.89Z" stroke="url(#paint0_linear_590_222972)" stroke-width="2" mask="url(#path-1-inside-1_590_222972)"/>
<defs>
<linearGradient id="paint0_linear_590_222972" x1="857.17" y1="-112.23" x2="857.17" y2="794.378" gradientUnits="userSpaceOnUse">
<stop stop-color="white"/>
<stop offset="1" stop-color="white" stop-opacity="0"/>
</linearGradient>
</defs>
</svg>
